<?xml version="1.0" encoding="UTF-8" standalone="no"?>
<!-- Created with Inkscape (http://www.inkscape.org/) -->

<svg
   width="28.31946mm"
   height="61.821301mm"
   viewBox="0 0 28.31946 61.821301"
   version="1.1"
   id="svg1"
   xml:space="preserve"
   inkscape:version="1.4 (e7c3feb100, 2024-10-09)"
   sodipodi:docname="crux35-top-plate.svg"
   inkscape:export-filename="../3d/crux35-top-plate.svg"
   inkscape:export-xdpi="90.209999"
   inkscape:export-ydpi="90.209999"
   xmlns:inkscape="http://www.inkscape.org/namespaces/inkscape"
   xmlns:sodipodi="http://sodipodi.sourceforge.net/DTD/sodipodi-0.dtd"
   xmlns="http://www.w3.org/2000/svg"
   xmlns:svg="http://www.w3.org/2000/svg"><sodipodi:namedview
     id="namedview1"
     pagecolor="#ffffff"
     bordercolor="#666666"
     borderopacity="1.0"
     inkscape:showpageshadow="2"
     inkscape:pageopacity="0.0"
     inkscape:pagecheckerboard="0"
     inkscape:deskcolor="#d1d1d1"
     inkscape:document-units="mm"
     showgrid="true"
     inkscape:zoom="2.9"
     inkscape:cx="311.72414"
     inkscape:cy="589.13793"
     inkscape:window-width="1920"
     inkscape:window-height="1017"
     inkscape:window-x="0"
     inkscape:window-y="26"
     inkscape:window-maximized="1"
     inkscape:current-layer="layer2-9"><inkscape:grid
       id="grid1"
       units="mm"
       originx="-90.381826"
       originy="-119.57555"
       spacingx="1"
       spacingy="0.99999986"
       empcolor="#0000ff"
       empopacity="0.25098039"
       color="#0000ff"
       opacity="0.1254902"
       empspacing="5"
       enabled="true"
       visible="true" /><inkscape:page
       x="0"
       y="2.8013852e-23"
       width="28.31946"
       height="61.821301"
       id="page2"
       margin="0"
       bleed="0" /></sodipodi:namedview><defs
     id="defs1" /><g
     inkscape:groupmode="layer"
     id="layer2"
     inkscape:label="Layer 2"
     transform="translate(-90.381828,-119.57554)"><g
       inkscape:groupmode="layer"
       id="layer2-9"
       inkscape:label="Layer 2"
       transform="translate(7.9999994,-0.99999864)"><path
         id="path1-1-9"
         style="display:inline;fill:#e6e6e6;fill-rule:evenodd;stroke:#000000;stroke-width:0.1;stroke-linecap:butt;stroke-linejoin:miter;stroke-dasharray:none;stroke-opacity:1"
         d="m 89.022812,120.62569 c -1,-0.0161 -1.781683,1.31422 -3.000334,2.65669 -1.218651,1.34247 -2.800934,3.0547 -2.999817,3.90777 -0.349017,1.49703 1.28066,4.05253 1.29036,4.96972 0.02682,2.531 -2.079387,7.81024 -1.725992,10.04848 0.435465,2.75803 6.435645,6.11288 6.225976,9.75806 -0.162422,2.82376 -4.03945,4.40296 -5.532479,6.29006 -0.852749,1.07782 -0.900692,2.40648 -0.822172,3.70985 0.09644,1.60087 1.245765,3 1.564246,4.41937 0.228256,1.01727 0,11.58063 0,12.58063 0,1 0.09135,2.05997 0.95188,2.70939 0.83139,0.62742 5.345205,0.65248 5.838403,-0.41909 1.209666,-2.62824 1.016146,-7.49952 2.209684,-8.29045 0.41679,-0.27621 2.217682,-0.20798 3.370854,-0.21498 1.158146,0 2.014514,-0.13526 3.12229,0.21498 1.193539,0.79093 0.555479,6.25825 2.064479,8.43566 0.67193,0.96954 5.05567,1.40128 6.25801,0.27388 0.78639,-0.73741 0.82269,-1.70939 0.82269,-2.70939 0,-1 -0.051,-11.41815 0.17725,-12.43542 0.31848,-1.41937 1.58102,-2.96371 1.67742,-4.56458 0.0785,-1.30337 0.14326,-2.50284 -0.70952,-3.58066 -1.49303,-1.8871 -5.24086,-3.59549 -5.40328,-6.41925 -0.20967,-3.64518 5.87064,-6.51618 6.22546,-9.75806 0.24653,-2.25252 -1.58382,-7.50146 -1.55702,-10.03246 0.01,-0.91719 1.64817,-3.48871 1.29915,-4.98574 -0.19888,-0.85307 -1.72329,-2.62111 -2.94194,-3.96358 -1.21865,-1.34247 -1.97656,-2.5715 -2.97656,-2.5554 -1.49052,0.024 -2.9913,1.7115 -3.8716,2.81119 -0.42166,0.52675 -0.2915,1.31353 -0.2403,2.04536 0.0512,0.73183 0.0738,1.49382 0.20774,2.00298 0.28197,1.07179 3.67756,2.30194 3.93568,2.95175 0.14511,0.3653 -0.60811,2.50561 -1.32343,4.48397 -0.76824,2.12469 -1.11721,5.45463 -2.52595,5.44463 -1.040278,-0.007 -2.030292,-2.02882 -4.003891,-2.02882 -1.912356,-0.0496 -2.990483,1.91584 -3.96875,1.90324 -1.408655,-0.0182 -1.692305,-3.18629 -2.387968,-5.31905 -0.65236,-2 -1.336269,-4.10036 -1.250569,-4.48397 0.178284,-0.79807 3.524506,-1.87996 3.806486,-2.95175 0.13394,-0.50916 0.142069,-1.30836 0.193269,-2.04019 0.05122,-0.73183 0.108391,-1.40461 -0.193269,-2.00815 -0.70924,-1.41901 -2.315968,-2.83267 -3.806486,-2.85667 z m -2.327915,5.55165 c 0.543425,-5e-5 0.98397,0.4405 0.983919,0.98392 5.1e-5,0.54343 -0.440494,0.98397 -0.983919,0.98392 -0.543425,5e-5 -0.98397,-0.44049 -0.98392,-0.98392 -5e-5,-0.54342 0.440495,-0.98397 0.98392,-0.98392 z m 19.971483,0.23722 c 0.54342,-5e-5 0.98397,0.4405 0.98392,0.98392 5e-5,0.54343 -0.4405,0.98397 -0.98392,0.98392 -0.54343,5e-5 -0.98397,-0.44049 -0.98392,-0.98392 -5e-5,-0.54342 0.44049,-0.98397 0.98392,-0.98392 z m -0.1551,14.4061 c 0.54342,-5e-5 0.98397,0.4405 0.98392,0.98392 5e-5,0.54343 -0.4405,0.98397 -0.98392,0.98392 -0.54343,5e-5 -0.98397,-0.44049 -0.98392,-0.98392 -5e-5,-0.54342 0.44049,-0.98397 0.98392,-0.98392 z m -20.012543,-0.28283 c 0.54343,-5e-5 0.98397,0.4405 0.98392,0.98392 5e-5,0.54343 -0.44049,0.98397 -0.98392,0.98392 -0.54342,5e-5 -0.98397,-0.44049 -0.98392,-0.98392 -5e-5,-0.54342 0.4405,-0.98397 0.98392,-0.98392 z m -0.104917,19.96692 c 0.543425,-5e-5 0.98397,0.4405 0.983919,0.98392 5.1e-5,0.54343 -0.440494,0.98397 -0.983919,0.98392 -0.543425,5e-5 -0.98397,-0.44049 -0.98392,-0.98392 -5e-5,-0.54342 0.440495,-0.98397 0.98392,-0.98392 z m 19.92586,0.2509 c 0.54343,-5e-5 0.98397,0.4405 0.98392,0.98392 5e-5,0.54343 -0.44049,0.98397 -0.98392,0.98392 -0.54342,5e-5 -0.98397,-0.44049 -0.98392,-0.98392 -5e-5,-0.54342 0.4405,-0.98397 0.98392,-0.98392 z m -1.05833,11.04407 c 0.54342,-5e-5 0.98397,0.4405 0.98392,0.98392 5e-5,0.54343 -0.4405,0.98397 -0.98392,0.98392 -0.54343,5e-5 -0.98397,-0.44049 -0.98392,-0.98392 -5e-5,-0.54342 0.44049,-0.98397 0.98392,-0.98392 z m -17.946049,-0.2509 c 0.543425,-5e-5 0.98397,0.4405 0.983919,0.98392 5.1e-5,0.54343 -0.440494,0.98397 -0.983919,0.98392 -0.543425,5e-5 -0.98397,-0.44049 -0.98392,-0.98392 -5e-5,-0.54342 0.440495,-0.98397 0.98392,-0.98392 z"
         sodipodi:nodetypes="ssscsssssssssccssssscsscsssssssscccsssssscccccccccccccccccccccccccccccccccccccccc"
         inkscape:export-filename="../3d/path1-1-9.svg"
         inkscape:export-xdpi="90.209999"
         inkscape:export-ydpi="90.209999" /></g></g></svg>
