<?xml version="1.0" encoding="UTF-8" standalone="no"?>
<!-- Created with Inkscape (http://www.inkscape.org/) -->

<svg
   width="106mm"
   height="106mm"
   viewBox="0 0 106 106"
   version="1.1"
   id="svg5"
   inkscape:version="1.2.2 (b0a8486541, 2022-12-01)"
   sodipodi:docname="canopy.svg"
   inkscape:export-filename="canopy.pdf"
   inkscape:export-xdpi="96"
   inkscape:export-ydpi="96"
   xmlns:inkscape="http://www.inkscape.org/namespaces/inkscape"
   xmlns:sodipodi="http://sodipodi.sourceforge.net/DTD/sodipodi-0.dtd"
   xmlns="http://www.w3.org/2000/svg"
   xmlns:svg="http://www.w3.org/2000/svg">
  <sodipodi:namedview
     id="namedview7"
     pagecolor="#ffffff"
     bordercolor="#000000"
     borderopacity="0.25"
     inkscape:showpageshadow="2"
     inkscape:pageopacity="0.0"
     inkscape:pagecheckerboard="0"
     inkscape:deskcolor="#d1d1d1"
     inkscape:document-units="mm"
     showgrid="true"
     inkscape:zoom="1.1893044"
     inkscape:cx="381.31533"
     inkscape:cy="293.44884"
     inkscape:window-width="1728"
     inkscape:window-height="1011"
     inkscape:window-x="0"
     inkscape:window-y="32"
     inkscape:window-maximized="1"
     inkscape:current-layer="layer2">
    <inkscape:grid
       type="xygrid"
       id="grid132"
       originx="0"
       originy="0"
       units="mm"
       spacingx="1"
       spacingy="1" />
  </sodipodi:namedview>
  <defs
     id="defs2" />
  <g
     inkscape:groupmode="layer"
     id="layer2"
     inkscape:label="Layer 2">
    <path
       id="path351"
       style="fill:none;stroke:#000000;stroke-width:0.1"
       d="m 53,0 c 0,0 -2.564971,-0.13221147 -3,3 -5,36 -12,47 -47,47 -3,0 -3,3 -3,3 0,0 0,3 3,3 35,0 47,12 47,47 0,3 3,3 3,3 0,0 3,0 3,-3 0,-35 12,-47 47,-47 3,0 3,-3 3,-3 0,0 0,-3 -3,-3 C 68,50 61,39 56,3 55.564971,-0.13221147 53,0 53,0 Z"
       sodipodi:nodetypes="csscsscsscssc" />
    <circle
       style="fill:none;stroke:#000000;stroke-width:0.1"
       id="path653"
       cx="53"
       cy="27"
       r="5" />
    <circle
       style="fill:none;stroke:#000000;stroke-width:0.1"
       id="path728"
       cy="15"
       cx="53"
       r="1" />
    <path
       style="fill:none;stroke:#000000;stroke-width:0.1"
       id="path776"
       sodipodi:type="arc"
       sodipodi:cx="53"
       sodipodi:cy="3"
       sodipodi:rx="1"
       sodipodi:ry="1"
       sodipodi:start="0"
       sodipodi:end="6.2748351"
       sodipodi:open="true"
       sodipodi:arc-type="arc"
       d="M 54,3 A 1,1 0 0 1 53.002088,3.9999978 1,1 0 0 1 52.000009,3.0041751 1,1 0 0 1 52.993737,2.0000196 1,1 0 0 1 53.999965,2.9916499" />
    <path
       style="fill:none;stroke:#000000;stroke-width:0.1"
       id="path778"
       sodipodi:type="arc"
       sodipodi:cx="3"
       sodipodi:cy="53"
       sodipodi:rx="1"
       sodipodi:ry="1"
       sodipodi:start="0"
       sodipodi:end="6.2748351"
       sodipodi:open="true"
       sodipodi:arc-type="arc"
       d="M 4,53 A 1,1 0 0 1 3.0020876,53.999998 1,1 0 0 1 2.0000087,53.004175 1,1 0 0 1 2.9937374,52.00002 1,1 0 0 1 3.9999651,52.99165" />
    <path
       style="fill:none;stroke:#000000;stroke-width:0.1"
       id="path780"
       sodipodi:type="arc"
       sodipodi:cx="53"
       sodipodi:cy="103"
       sodipodi:rx="1"
       sodipodi:ry="1"
       sodipodi:start="0"
       sodipodi:end="6.2748351"
       sodipodi:open="true"
       sodipodi:arc-type="arc"
       d="m 54,103 a 1,1 0 0 1 -0.997912,1 1,1 0 0 1 -1.002079,-0.99582 1,1 0 0 1 0.993728,-1.00416 1,1 0 0 1 1.006228,0.99163" />
    <path
       style="fill:none;stroke:#000000;stroke-width:0.1"
       id="path782"
       sodipodi:type="arc"
       sodipodi:cx="103"
       sodipodi:cy="53"
       sodipodi:rx="1"
       sodipodi:ry="1"
       sodipodi:start="0"
       sodipodi:end="6.2748351"
       sodipodi:open="true"
       sodipodi:arc-type="arc"
       d="m 104,53 a 1,1 0 0 1 -0.99791,0.999998 1,1 0 0 1 -1.00208,-0.995823 1,1 0 0 1 0.99373,-1.004155 1,1 0 0 1 1.00623,0.99163" />
  </g>
</svg>
